<svg width="52" height="52" viewBox="0 0 52 52" fill="none" xmlns="http://www.w3.org/2000/svg">
<path d="M26 0C20.8577 0 15.8309 1.52487 11.5552 4.38179C7.27951 7.23871 3.94702 11.2994 1.97914 16.0502C0.0112654 20.8011 -0.503621 26.0288 0.499594 31.0723C1.50281 36.1159 3.97907 40.7486 7.61524 44.3848C11.2514 48.0209 15.8842 50.4972 20.9277 51.5004C25.9712 52.5036 31.1989 51.9887 35.9498 50.0209C40.7007 48.053 44.7613 44.7205 47.6182 40.4448C50.4751 36.1691 52 31.1423 52 26C51.9927 19.1066 49.2511 12.4976 44.3767 7.62326C39.5024 2.74889 32.8934 0.00727955 26 0ZM26 48C21.6488 48 17.3953 46.7097 13.7775 44.2923C10.1596 41.8749 7.33979 38.439 5.67466 34.419C4.00953 30.3991 3.57386 25.9756 4.42274 21.708C5.27161 17.4404 7.36691 13.5204 10.4437 10.4437C13.5204 7.3669 17.4404 5.2716 21.708 4.42272C25.9756 3.57385 30.3991 4.00952 34.419 5.67465C38.439 7.33978 41.875 10.1596 44.2923 13.7775C46.7097 17.3953 48 21.6488 48 26C47.9934 31.8327 45.6734 37.4247 41.5491 41.549C37.4247 45.6734 31.8327 47.9934 26 48ZM38 26C38 26.5304 37.7893 27.0391 37.4142 27.4142C37.0392 27.7893 36.5304 28 36 28H20.8275L25.415 32.585C25.6008 32.7708 25.7482 32.9914 25.8488 33.2342C25.9494 33.477 26.0011 33.7372 26.0011 34C26.0011 34.2628 25.9494 34.523 25.8488 34.7658C25.7482 35.0086 25.6008 35.2292 25.415 35.415C25.2292 35.6008 25.0086 35.7482 24.7658 35.8488C24.523 35.9494 24.2628 36.0011 24 36.0011C23.7372 36.0011 23.477 35.9494 23.2342 35.8488C22.9914 35.7482 22.7708 35.6008 22.585 35.415L14.585 27.415C14.3991 27.2293 14.2515 27.0087 14.1509 26.7659C14.0502 26.5231 13.9984 26.2628 13.9984 26C13.9984 25.7372 14.0502 25.4769 14.1509 25.2341C14.2515 24.9913 14.3991 24.7707 14.585 24.585L22.585 16.585C22.9603 16.2097 23.4693 15.9989 24 15.9989C24.5307 15.9989 25.0397 16.2097 25.415 16.585C25.7903 16.9603 26.0011 17.4693 26.0011 18C26.0011 18.5307 25.7903 19.0397 25.415 19.415L20.8275 24H36C36.5304 24 37.0392 24.2107 37.4142 24.5858C37.7893 24.9609 38 25.4696 38 26Z" fill="#9B5759"/>
</svg>
