<svg width="52" height="52" viewBox="0 0 52 52" fill="none" xmlns="http://www.w3.org/2000/svg">
<path d="M26 0C31.1423 0 36.1691 1.52487 40.4448 4.38179C44.7205 7.23871 48.053 11.2994 50.0209 16.0502C51.9887 20.8011 52.5036 26.0288 51.5004 31.0723C50.4972 36.1159 48.0209 40.7486 44.3848 44.3848C40.7486 48.0209 36.1158 50.4972 31.0723 51.5004C26.0288 52.5036 20.8011 51.9887 16.0502 50.0209C11.2993 48.053 7.2387 44.7205 4.38178 40.4448C1.52486 36.1691 -1.14441e-05 31.1423 -1.14441e-05 26C0.0072681 19.1066 2.74888 12.4976 7.62325 7.62326C12.4976 2.74889 19.1066 0.00727955 26 0ZM26 48C30.3512 48 34.6047 46.7097 38.2225 44.2923C41.8404 41.8749 44.6602 38.439 46.3253 34.419C47.9905 30.3991 48.4261 25.9756 47.5773 21.708C46.7284 17.4404 44.6331 13.5204 41.5563 10.4437C38.4796 7.3669 34.5596 5.2716 30.292 4.42272C26.0244 3.57385 21.6009 4.00952 17.581 5.67465C13.561 7.33978 10.125 10.1596 7.70766 13.7775C5.29027 17.3953 3.99999 21.6488 3.99999 26C4.00661 31.8327 6.32658 37.4247 10.4509 41.549C14.5753 45.6734 20.1673 47.9934 26 48ZM14 26C14 26.5304 14.2107 27.0391 14.5858 27.4142C14.9608 27.7893 15.4696 28 16 28H31.1725L26.585 32.585C26.3992 32.7708 26.2518 32.9914 26.1512 33.2342C26.0506 33.477 25.9989 33.7372 25.9989 34C25.9989 34.2628 26.0506 34.523 26.1512 34.7658C26.2518 35.0086 26.3992 35.2292 26.585 35.415C26.7708 35.6008 26.9914 35.7482 27.2342 35.8488C27.477 35.9494 27.7372 36.0011 28 36.0011C28.2628 36.0011 28.523 35.9494 28.7658 35.8488C29.0086 35.7482 29.2292 35.6008 29.415 35.415L37.415 27.415C37.6009 27.2293 37.7485 27.0087 37.8491 26.7659C37.9498 26.5231 38.0016 26.2628 38.0016 26C38.0016 25.7372 37.9498 25.4769 37.8491 25.2341C37.7485 24.9913 37.6009 24.7707 37.415 24.585L29.415 16.585C29.0397 16.2097 28.5307 15.9989 28 15.9989C27.4693 15.9989 26.9603 16.2097 26.585 16.585C26.2097 16.9603 25.9989 17.4693 25.9989 18C25.9989 18.5307 26.2097 19.0397 26.585 19.415L31.1725 24H16C15.4696 24 14.9608 24.2107 14.5858 24.5858C14.2107 24.9609 14 25.4696 14 26Z" fill="#9B5759"/>
</svg>
